<svg width="269" height="267" viewBox="0 0 269 267" fill="none" xmlns="http://www.w3.org/2000/svg">
<ellipse cx="134.686" cy="133.5" rx="134.02" ry="133.5" fill="#FFB103"/>
<ellipse cx="133.647" cy="134.535" rx="122.592" ry="122.116" fill="#BC633C"/>
<path d="M172.8 36.5091C169.522 33.2434 165.018 31.9398 160.76 32.5981C158.511 32.9469 156.62 31.0547 156.97 28.8137C157.784 23.5948 155.609 18.0009 150.449 14.7701C146.034 12.0059 140.187 12.0321 135.793 14.8312C130.751 18.0358 128.603 23.5119 129.342 28.6524C129.675 30.9762 127.745 32.9077 125.412 32.5763C121.206 31.9747 116.773 33.287 113.535 36.5091C110.296 39.7354 108.979 44.1478 109.587 48.3421C109.924 50.6616 107.985 52.5931 105.657 52.2573C101.447 51.6557 97.0138 52.968 93.7796 56.1901C90.5411 59.4164 89.2238 63.8288 89.8321 68.0231C90.1691 70.3426 88.2304 72.2741 85.9021 71.9383C81.6921 71.3367 77.2631 72.6447 74.0246 75.871C70.7861 79.0974 69.4688 83.5098 70.0771 87.7041C70.4141 90.0236 68.4754 91.9551 66.1471 91.6193C61.937 91.0177 57.5081 92.3257 54.2696 95.5521C51.0311 98.7784 49.7138 103.191 50.3221 107.385C50.6591 109.705 48.7203 111.636 46.3921 111.3C42.182 110.699 37.7531 112.007 34.5146 115.233C31.2761 118.459 29.9631 122.872 30.5671 127.066C30.9041 129.39 28.961 131.313 26.6283 130.981C21.4379 130.24 15.9106 132.411 12.6983 137.495C9.93679 141.873 9.93679 147.645 12.7027 152.023C15.9193 157.115 21.4642 159.282 26.6677 158.528C28.9828 158.192 30.9084 160.106 30.5715 162.408C29.9544 166.611 31.2673 171.041 34.5146 174.276C37.7619 177.511 42.2083 178.819 46.4271 178.204C48.7379 177.869 50.6635 179.787 50.3265 182.089C49.7094 186.292 51.0223 190.722 54.2696 193.957C57.5169 197.192 61.9633 198.5 66.1821 197.885C68.4929 197.55 70.4185 199.468 70.0815 201.77C69.4644 205.973 70.7773 210.403 74.0246 213.638C77.2719 216.873 81.7183 218.181 85.9372 217.566C88.2479 217.231 90.1735 219.149 89.8365 221.451C89.2194 225.654 90.5324 230.084 93.7796 233.319C97.0269 236.554 101.473 237.862 105.692 237.247C108.003 236.912 109.929 238.834 109.587 241.136C108.83 246.286 110.979 251.779 116.025 254.993C120.423 257.792 126.274 257.822 130.69 255.054C135.841 251.827 138.016 246.246 137.211 241.036C136.865 238.782 138.76 236.886 141.023 237.234C145.272 237.888 149.767 236.58 153.04 233.319C156.314 230.058 157.622 225.58 156.966 221.347C156.62 219.097 158.52 217.205 160.778 217.549C165.027 218.203 169.522 216.895 172.795 213.638C176.069 210.377 177.377 205.899 176.721 201.666C176.375 199.416 178.275 197.524 180.533 197.868C184.782 198.522 189.277 197.214 192.55 193.957C195.824 190.696 197.132 186.218 196.476 181.985C196.13 179.735 198.03 177.843 200.288 178.187C204.537 178.841 209.032 177.533 212.305 174.276C215.579 171.015 216.887 166.537 216.231 162.304C215.885 160.054 217.785 158.162 220.043 158.506C224.292 159.16 228.787 157.852 232.06 154.595C235.334 151.334 236.642 146.856 235.99 142.623C235.64 140.368 237.548 138.481 239.807 138.825C245.041 139.627 250.643 137.46 253.877 132.329C256.629 127.96 256.629 122.183 253.877 117.814C250.634 112.674 245.023 110.511 239.785 111.322C237.535 111.671 235.636 109.783 235.986 107.546C236.647 103.308 235.338 98.822 232.06 95.5521C228.782 92.2864 224.279 90.9828 220.021 91.6411C217.776 91.9899 215.876 90.1021 216.227 87.861C216.887 83.6231 215.583 79.1367 212.301 75.8667C209.023 72.6011 204.52 71.2974 200.262 71.9558C198.016 72.3046 196.117 70.4167 196.467 68.1757C197.128 63.9378 195.824 59.4513 192.542 56.1813C189.264 52.9157 184.76 51.6121 180.502 52.2704C178.257 52.6192 176.358 50.7313 176.708 48.4903C177.386 44.2655 176.078 39.779 172.8 36.5091Z" fill="#E69441"/>
<path d="M40.3746 142.592L38.8253 144.135C37.1142 145.84 37.1142 148.596 38.8253 150.3C39.6787 151.151 40.7991 151.578 41.9194 151.578C43.0398 151.578 44.1602 151.151 45.0136 150.3L46.5628 148.757C48.274 147.052 48.274 144.297 46.5628 142.592C44.8516 140.887 42.0814 140.887 40.3746 142.592Z" fill="#BC633C"/>
<path d="M79.0706 116.371L80.6198 114.828C82.331 113.123 82.331 110.367 80.6198 108.663C78.9087 106.958 76.1428 106.958 74.4316 108.663L72.8824 110.206C71.1712 111.911 71.1712 114.666 72.8824 116.371C73.7358 117.221 74.8561 117.649 75.9765 117.649C77.0969 117.649 78.2172 117.226 79.0706 116.371Z" fill="#BC633C"/>
<path d="M62.0421 133.336L63.5913 131.792C65.3025 130.088 65.3025 127.332 63.5913 125.627C61.8802 123.923 59.1143 123.923 57.4031 125.627L55.8539 127.171C54.1427 128.876 54.1427 131.631 55.8539 133.336C56.7073 134.186 57.8276 134.613 58.948 134.613C60.0683 134.613 61.1887 134.186 62.0421 133.336Z" fill="#BC633C"/>
<path d="M127.058 66.7587C128.178 66.7587 129.298 66.3314 130.152 65.4812L131.701 63.9378C133.412 62.233 133.412 59.4775 131.701 57.7728C129.99 56.068 127.224 56.068 125.513 57.7728L123.964 59.3162C122.252 61.021 122.252 63.7765 123.964 65.4812C124.821 66.3358 125.937 66.7587 127.058 66.7587Z" fill="#BC633C"/>
<path d="M96.0991 99.4107L97.6484 97.8672C99.3595 96.1625 99.3595 93.407 97.6484 91.7022C95.9372 89.9975 93.1713 89.9975 91.4602 91.7022L89.9109 93.2457C88.1998 94.9504 88.1998 97.7059 89.9109 99.4107C90.7643 100.261 91.8847 100.688 93.005 100.688C94.1254 100.688 95.2457 100.261 96.0991 99.4107Z" fill="#BC633C"/>
<path d="M110.034 83.7234C111.154 83.7234 112.274 83.2962 113.128 82.446L114.677 80.9025C116.388 79.1978 116.388 76.4423 114.677 74.7375C112.966 73.0327 110.2 73.0327 108.489 74.7375L106.939 76.2809C105.228 77.9857 105.228 80.7412 106.939 82.446C107.793 83.2962 108.913 83.7234 110.034 83.7234Z" fill="#BC633C"/>
<path d="M144.086 49.794C145.207 49.794 146.327 49.3667 147.18 48.5165L148.73 46.9731C150.441 45.2683 150.441 42.5128 148.73 40.808C147.018 39.1033 144.253 39.1033 142.541 40.808L140.992 42.3515C139.281 44.0562 139.281 46.8117 140.992 48.5165C141.846 49.3667 142.966 49.794 144.086 49.794Z" fill="#BC633C"/>
<path d="M60.1252 162.277L58.576 163.821C56.8692 165.526 56.8692 168.285 58.5847 169.986C59.4381 170.832 60.5541 171.259 61.6745 171.259C62.7992 171.259 63.9196 170.832 64.7729 169.977L66.3222 168.434C68.029 166.729 68.029 163.969 66.3134 162.269C64.6066 160.573 61.8364 160.568 60.1252 162.277Z" fill="#BC633C"/>
<path d="M81.7971 153.017L83.3463 151.473C85.0575 149.769 85.0575 147.013 83.3463 145.308C81.6352 143.604 78.8693 143.604 77.1581 145.308L75.6089 146.852C73.8977 148.556 73.8977 151.312 75.6089 153.017C76.4623 153.867 77.5826 154.294 78.703 154.294C79.8234 154.294 80.9437 153.867 81.7971 153.017Z" fill="#BC633C"/>
<path d="M98.8256 136.052L100.375 134.509C102.086 132.804 102.086 130.048 100.375 128.344C98.6637 126.639 95.8978 126.639 94.1867 128.344L92.6374 129.887C90.9262 131.592 90.9262 134.347 92.6374 136.052C93.4908 136.902 94.6112 137.33 95.7315 137.33C96.8519 137.33 97.9722 136.902 98.8256 136.052Z" fill="#BC633C"/>
<path d="M115.854 119.087L117.403 117.544C119.115 115.839 119.115 113.084 117.403 111.379C115.692 109.674 112.926 109.674 111.215 111.379L109.666 112.922C107.955 114.627 107.955 117.383 109.666 119.087C110.519 119.938 111.64 120.365 112.76 120.365C113.88 120.365 114.996 119.942 115.854 119.087Z" fill="#BC633C"/>
<path d="M145.268 77.4538L143.719 78.9972C142.007 80.702 142.007 83.4575 143.719 85.1622C144.572 86.0124 145.692 86.4397 146.813 86.4397C147.933 86.4397 149.053 86.0124 149.907 85.1622L151.456 83.6188C153.167 81.9141 153.167 79.1585 151.456 77.4538C149.745 75.749 146.979 75.749 145.268 77.4538Z" fill="#BC633C"/>
<path d="M128.239 94.4185L126.69 95.9619C124.979 97.6667 124.979 100.422 126.69 102.127C127.543 102.977 128.664 103.404 129.784 103.404C130.905 103.404 132.025 102.977 132.878 102.127L134.428 100.584C136.139 98.8788 136.139 96.1233 134.428 94.4185C132.716 92.7137 129.946 92.7181 128.239 94.4185Z" fill="#BC633C"/>
<path d="M163.846 69.475C164.966 69.475 166.086 69.0477 166.94 68.1975L168.489 66.6541C170.2 64.9493 170.2 62.1938 168.489 60.4891C166.778 58.7843 164.012 58.7843 162.301 60.4891L160.752 62.0325C159.04 63.7372 159.04 66.4928 160.752 68.1975C161.605 69.0477 162.725 69.475 163.846 69.475Z" fill="#BC633C"/>
<path d="M79.8846 181.954L78.3354 183.497C76.6242 185.202 76.6242 187.958 78.3354 189.662C79.1888 190.513 80.3091 190.94 81.4295 190.94C82.5498 190.94 83.6702 190.513 84.5236 189.662L86.0728 188.119C87.784 186.414 87.784 183.659 86.0728 181.954C84.3617 180.249 81.5958 180.254 79.8846 181.954Z" fill="#BC633C"/>
<path d="M101.552 172.698L103.101 171.154C104.813 169.45 104.813 166.694 103.101 164.989C101.39 163.285 98.6243 163.285 96.9131 164.989L95.3639 166.533C93.6527 168.237 93.6527 170.993 95.3639 172.698C96.2173 173.548 97.3376 173.975 98.458 173.975C99.5784 173.975 100.699 173.552 101.552 172.698Z" fill="#BC633C"/>
<path d="M118.581 155.733L120.13 154.19C121.841 152.485 121.841 149.729 120.13 148.025C118.419 146.32 115.653 146.32 113.942 148.025L112.392 149.568C110.681 151.273 110.681 154.028 112.392 155.733C113.246 156.583 114.366 157.011 115.487 157.011C116.607 157.011 117.723 156.583 118.581 155.733Z" fill="#BC633C"/>
<path d="M152.629 121.808L154.178 120.265C155.894 118.564 155.894 115.804 154.187 114.099C152.476 112.39 149.71 112.39 147.999 114.091L146.449 115.634C144.734 117.335 144.734 120.094 146.441 121.799C147.294 122.654 148.414 123.081 149.539 123.081C150.66 123.081 151.776 122.658 152.629 121.808Z" fill="#BC633C"/>
<path d="M135.605 138.768L137.154 137.225C138.865 135.52 138.865 132.765 137.154 131.06C135.443 129.355 132.677 129.355 130.966 131.06L129.417 132.603C127.705 134.308 127.705 137.064 129.417 138.768C130.27 139.619 131.39 140.046 132.511 140.046C133.631 140.046 134.751 139.619 135.605 138.768Z" fill="#BC633C"/>
<path d="M169.666 104.843L171.215 103.3C172.927 101.595 172.927 98.8395 171.215 97.1348C169.504 95.43 166.738 95.43 165.027 97.1348L163.478 98.6782C161.767 100.383 161.767 103.138 163.478 104.843C164.331 105.693 165.452 106.121 166.572 106.121C167.692 106.121 168.808 105.693 169.666 104.843Z" fill="#BC633C"/>
<path d="M186.695 87.8742L188.244 86.3307C189.951 84.626 189.951 81.8661 188.235 80.1657C186.52 78.4697 183.754 78.4697 182.047 80.1744L180.498 81.7178C178.791 83.4226 178.791 86.1825 180.507 87.8829C181.36 88.7287 182.476 89.156 183.596 89.156C184.721 89.156 185.841 88.7331 186.695 87.8742Z" fill="#BC633C"/>
<path d="M99.6396 201.635L98.0904 203.178C96.3792 204.883 96.3792 207.639 98.0904 209.343C98.9438 210.194 100.064 210.621 101.184 210.621C102.305 210.621 103.425 210.194 104.279 209.343L105.828 207.8C107.539 206.095 107.539 203.34 105.828 201.635C104.117 199.93 101.346 199.93 99.6396 201.635Z" fill="#BC633C"/>
<path d="M138.336 175.414L139.885 173.871C141.596 172.166 141.596 169.41 139.885 167.706C138.174 166.001 135.408 166.001 133.697 167.706L132.147 169.249C130.436 170.954 130.436 173.709 132.147 175.414C133.001 176.264 134.121 176.692 135.242 176.692C136.362 176.692 137.482 176.269 138.336 175.414Z" fill="#BC633C"/>
<path d="M121.307 192.379L122.856 190.835C124.568 189.131 124.568 186.375 122.856 184.67C121.145 182.966 118.379 182.966 116.668 184.67L115.119 186.214C113.408 187.918 113.408 190.674 115.119 192.379C115.972 193.229 117.093 193.656 118.213 193.656C119.333 193.656 120.454 193.229 121.307 192.379Z" fill="#BC633C"/>
<path d="M189.417 124.52L190.966 122.976C192.677 121.272 192.677 118.516 190.966 116.811C189.255 115.107 186.489 115.107 184.778 116.811L183.229 118.355C181.517 120.06 181.517 122.815 183.229 124.52C184.082 125.37 185.202 125.797 186.323 125.797C187.443 125.797 188.563 125.374 189.417 124.52Z" fill="#BC633C"/>
<path d="M155.364 158.454L156.913 156.91C158.625 155.205 158.625 152.45 156.913 150.745C155.202 149.04 152.436 149.04 150.725 150.745L149.176 152.289C147.465 153.993 147.465 156.749 149.176 158.454C150.029 159.304 151.15 159.731 152.27 159.731C153.39 159.731 154.511 159.304 155.364 158.454Z" fill="#BC633C"/>
<path d="M172.397 141.485L173.946 139.941C175.653 138.236 175.653 135.477 173.938 133.776C172.226 132.08 169.461 132.08 167.749 133.785L166.2 135.328C164.493 137.033 164.493 139.793 166.209 141.493C167.062 142.339 168.178 142.766 169.299 142.766C170.419 142.766 171.539 142.339 172.397 141.485Z" fill="#BC633C"/>
<path d="M206.45 107.56L207.999 106.016C209.71 104.311 209.71 101.556 207.999 99.8511C206.288 98.1463 203.522 98.1463 201.811 99.8511L200.262 101.394C198.55 103.099 198.55 105.855 200.262 107.56C201.115 108.41 202.235 108.837 203.356 108.837C204.476 108.837 205.596 108.41 206.45 107.56Z" fill="#BC633C"/>
<path d="M119.395 221.316L117.85 222.855C116.139 224.56 116.139 227.315 117.85 229.02C118.703 229.87 119.824 230.298 120.944 230.298C122.064 230.298 123.185 229.87 124.038 229.02L125.587 227.477C127.298 225.772 127.298 223.016 125.587 221.312C123.876 219.607 121.106 219.611 119.395 221.316Z" fill="#BC633C"/>
<path d="M153.452 187.387L151.902 188.93C150.191 190.635 150.191 193.39 151.902 195.095C152.756 195.945 153.876 196.373 154.997 196.373C156.117 196.373 157.237 195.945 158.091 195.095L159.64 193.552C161.351 191.847 161.351 189.091 159.64 187.387C157.929 185.682 155.158 185.686 153.452 187.387Z" fill="#BC633C"/>
<path d="M136.423 204.351L134.874 205.895C133.167 207.595 133.167 210.355 134.874 212.06C135.727 212.91 136.848 213.337 137.968 213.337C139.088 213.337 140.209 212.91 141.062 212.06L142.611 210.516C144.323 208.812 144.323 206.056 142.611 204.351C140.9 202.647 138.134 202.647 136.423 204.351Z" fill="#BC633C"/>
<path d="M170.476 170.426L168.927 171.97C167.215 173.674 167.215 176.43 168.927 178.135C169.78 178.985 170.9 179.412 172.021 179.412C173.141 179.412 174.261 178.985 175.115 178.135L176.664 176.591C178.375 174.886 178.375 172.131 176.664 170.426C174.953 168.721 172.187 168.721 170.476 170.426Z" fill="#BC633C"/>
<path d="M204.533 136.497L202.984 138.04C201.272 139.745 201.272 142.5 202.984 144.205C203.837 145.055 204.957 145.483 206.078 145.483C207.198 145.483 208.318 145.055 209.172 144.205L210.721 142.662C212.432 140.957 212.432 138.202 210.721 136.497C209.01 134.792 206.244 134.792 204.533 136.497Z" fill="#BC633C"/>
<path d="M187.504 153.461L185.955 155.005C184.244 156.71 184.244 159.465 185.955 161.17C186.809 162.02 187.929 162.447 189.049 162.447C190.17 162.447 191.29 162.02 192.143 161.17L193.693 159.627C195.404 157.922 195.404 155.166 193.693 153.461C191.981 151.757 189.211 151.761 187.504 153.461Z" fill="#BC633C"/>
<path d="M227.75 119.532C226.038 117.827 223.273 117.827 221.561 119.532L220.012 121.075C218.301 122.78 218.301 125.536 220.012 127.24C220.866 128.091 221.986 128.518 223.106 128.518C224.227 128.518 225.347 128.091 226.2 127.24L227.75 125.697C229.461 123.992 229.461 121.237 227.75 119.532Z" fill="#BC633C"/>
<path d="M14.0898 107.672C14.0892 105.635 14.1755 104.422 14.3488 104.032L14.8037 103.772C15.107 103.598 15.8869 103.403 17.1435 103.186C18.4001 102.926 19.9817 102.795 21.8884 102.795C26.7417 102.793 29.9269 103.443 31.444 104.742C31.6607 105.175 31.7697 107.537 31.7709 111.827C31.7715 113.647 31.7286 115.38 31.6424 117.027C31.5995 118.63 31.5781 119.475 31.5781 119.562C33.398 119.042 35.3046 118.781 37.2979 118.781C41.6746 118.779 45.1417 120.49 47.6993 123.913C50.3003 127.292 51.6014 131.17 51.6026 135.547C51.6033 138.06 51.1707 140.595 50.3048 143.152C49.4821 145.709 48.1611 147.919 46.3416 149.783C44.5221 151.647 42.4641 152.579 40.1674 152.58C38.7374 152.58 36.9606 152.039 34.8369 150.956C32.7566 149.83 31.3698 149.159 30.6764 148.942C30.7197 148.986 30.7414 149.181 30.7415 149.527C30.7417 150.221 30.6336 150.979 30.4172 151.802C29.5506 151.976 27.0589 152.063 22.9423 152.065C20.9056 152.065 19.0855 151.849 17.4821 151.416C15.8786 150.983 14.9252 150.528 14.6217 150.052C14.4915 149.532 14.4262 148.319 14.4257 146.412C14.4247 142.989 14.5975 141.147 14.9441 140.887C16.3307 140.583 17.7173 140.431 19.104 140.431C19.7107 140.43 20.079 140.452 20.209 140.495C19.775 138.069 19.5569 132.999 19.5547 125.285C19.5541 123.162 19.5751 120.67 19.6176 117.81C19.6602 114.95 19.6813 113.152 19.6811 112.415C19.3345 112.502 18.9662 112.546 18.5762 112.546C17.8395 112.546 16.9945 112.438 16.0411 112.221C15.131 112.005 14.5676 111.724 14.3508 111.377C14.1774 110.987 14.0904 109.752 14.0898 107.672ZM30.542 133.342C30.5426 135.379 31.3014 137.177 32.8185 138.737C34.3356 140.296 35.9608 141.076 37.6942 141.075C39.0375 141.075 40.1207 140.576 40.9438 139.58C41.7668 138.583 42.1781 137.412 42.1778 136.069C42.1773 134.249 41.4834 132.494 40.0963 130.805C38.7525 129.072 37.1272 128.206 35.2206 128.206C33.8339 128.206 32.7074 128.705 31.841 129.702C30.9746 130.656 30.5416 131.869 30.542 133.342ZM54.6171 146.661C54.6165 144.537 55.0495 143.302 55.916 142.955C56.306 142.739 57.0642 142.543 58.1909 142.37C58.9708 142.239 59.4691 142.174 59.6858 142.174C59.2077 137.148 58.9685 133.941 58.9681 132.554C58.9673 129.521 59.1834 127.528 59.6164 126.574C58.3598 126.575 57.3847 126.488 56.6913 126.315C56.3444 125.405 56.1709 124.604 56.1707 123.91C56.1703 122.567 56.7549 121.028 57.9244 119.295C59.5276 118.991 62.5392 118.838 66.9592 118.837C68.4759 118.837 69.9493 118.923 71.3793 119.096C72.8094 119.269 73.9144 119.485 74.6945 119.745C75.5179 119.962 75.9296 120.178 75.9297 120.395C76.2765 120.915 76.4501 121.716 76.4504 122.8C76.451 125.096 76.1048 126.678 75.4117 127.545C75.2817 127.718 74.6968 127.805 73.6568 127.805C72.6168 127.806 71.8801 127.698 71.4467 127.481C70.9709 130.514 70.7336 134.436 70.735 139.246C70.7356 141.283 70.8009 142.345 70.9309 142.431C71.1909 142.388 71.5592 142.366 72.0359 142.366C73.1625 142.366 74.2026 142.604 75.1561 143.08C75.3295 143.383 75.4163 143.903 75.4165 144.64C75.4168 145.723 75.2438 147.002 74.8976 148.475C74.5513 149.905 74.2049 150.902 73.8584 151.465C73.1652 151.856 70.8469 152.051 66.9036 152.052C60.5769 152.054 56.9151 151.47 55.9181 150.3C55.0513 149.694 54.6176 148.481 54.6171 146.661ZM61.1057 106.164C61.1053 104.951 61.7552 104.344 63.0552 104.343C64.1385 104.343 65.3086 104.668 66.5654 105.317C67.4752 104.407 68.6884 103.952 70.2051 103.951C71.1584 103.951 72.0035 104.276 72.7403 104.926C73.4772 105.575 73.8458 106.464 73.8461 107.59C73.8462 108.154 73.7164 108.695 73.4565 109.215C73.24 109.736 73.0018 110.169 72.7419 110.516C72.482 110.862 72.0488 111.274 71.4423 111.751C70.8357 112.185 70.3591 112.51 70.0125 112.726C69.7092 112.9 69.146 113.225 68.3228 113.702C67.4996 114.135 66.9797 114.417 66.763 114.547C65.0727 113.291 63.7073 111.883 62.6669 110.323C61.6264 108.72 61.106 107.334 61.1057 106.164ZM78.8585 150.099C78.9014 148.842 79.0961 147.607 79.4424 146.394C79.7887 145.18 80.4168 144.054 81.3265 143.013C82.2795 141.93 83.406 141.388 84.706 141.387C85.7894 141.387 86.9594 141.625 88.2162 142.101C89.5163 142.534 90.1665 143.184 90.1668 144.051C90.1668 144.224 90.1236 144.484 90.037 144.831C91.5971 145.35 92.6589 145.61 93.2222 145.61C94.2189 145.61 95.0854 145.241 95.8219 144.504C96.6017 143.724 96.9914 142.792 96.9911 141.709C96.9908 140.669 96.5789 139.889 95.7555 139.369C94.9753 138.849 93.9569 138.568 92.7002 138.525C91.4869 138.482 90.1652 138.352 88.7351 138.136C87.3484 137.92 86.0266 137.639 84.7699 137.292C83.5564 136.903 82.5379 136.101 81.7142 134.888C80.9338 133.675 80.5434 132.072 80.5428 130.078C80.5421 127.392 81.2781 125.182 82.751 123.448C84.2238 121.714 85.9568 120.544 87.95 119.936C89.9865 119.329 92.2614 119.025 94.7747 119.025C96.6814 119.024 98.8048 119.218 101.145 119.608C101.578 118.828 102.076 118.351 102.639 118.177C105.846 118.48 107.97 119.563 109.01 121.426C108.924 122.682 108.708 123.917 108.361 125.131C108.058 126.301 107.43 127.428 106.477 128.511C105.568 129.595 104.441 130.137 103.098 130.137C102.015 130.138 100.844 129.921 99.5877 129.488C98.3309 129.012 97.7024 128.34 97.7021 127.474C97.7021 127.3 97.7453 127.04 97.8319 126.694C96.7918 126.347 95.9684 126.174 95.3617 126.174C94.3217 126.175 93.4335 126.543 92.6971 127.28C91.9606 128.017 91.5925 128.819 91.5927 129.685C91.593 130.725 92.1999 131.484 93.4134 131.96C94.6702 132.436 96.1653 132.761 97.8986 132.934C99.6754 133.107 101.452 133.366 103.229 133.712C105.006 134.058 106.501 134.86 107.715 136.116C108.972 137.329 109.6 139.04 109.601 141.25C109.602 144.977 107.999 147.794 104.793 149.702C101.587 151.566 97.7741 152.499 93.3541 152.5C91.2741 152.501 89.0641 152.306 86.724 151.917C86.2909 152.697 85.7927 153.174 85.2294 153.347C82.0226 153.045 79.899 151.962 78.8585 150.099ZM112.767 137.285C112.765 131.261 114.649 126.689 118.418 123.568C122.187 120.447 127.841 118.885 135.381 118.883L135.901 117.258C137.071 116.998 138.219 116.867 139.346 116.867C141.903 116.866 144.243 117.581 146.366 119.01C146.497 119.66 146.562 120.57 146.562 121.74C146.563 123.993 146.195 125.9 145.459 127.46C144.723 129.021 143.813 130.018 142.73 130.451C140.867 131.102 139.155 131.427 137.595 131.428C135.992 131.428 134.54 131.103 133.24 130.454L133.694 128.244C132.654 127.941 131.657 127.789 130.704 127.79C128.711 127.79 127.064 128.701 125.765 130.521C124.509 132.341 123.881 134.356 123.881 136.566C123.882 138.386 124.316 140.033 125.183 141.506C126.05 142.936 127.133 143.651 128.433 143.65C129.647 143.65 131.098 143.151 132.788 142.154L132.332 140.399C134.369 138.925 136.709 138.188 139.352 138.187C140.262 138.187 141.41 138.338 142.797 138.641C145.441 141.544 146.764 144.967 146.765 148.91C146.765 149.777 146.7 150.665 146.571 151.575C144.188 153.136 141.458 153.917 138.381 153.917C137.948 153.918 137.255 153.874 136.301 153.788L135.716 152.033C132.769 152.597 130.213 152.88 128.046 152.88C123.366 152.882 119.639 151.604 116.865 149.048C114.134 146.492 112.768 142.571 112.767 137.285ZM149.054 126.354C149.053 123.364 149.269 121.523 149.702 120.829C152.952 119.962 155.92 119.528 158.607 119.527C161.597 119.526 164.197 119.915 166.407 120.695C166.711 120.911 167.036 121.691 167.383 123.034C167.73 124.334 167.904 125.461 167.904 126.414C167.904 127.844 167.515 129.079 166.735 130.12C166.258 130.423 165.652 130.575 164.915 130.575C164.698 130.575 164.547 130.553 164.46 130.51C164.373 130.467 164.265 130.424 164.135 130.38C164.048 130.294 163.94 130.229 163.81 130.185C163.55 131.485 163.421 132.677 163.421 133.76C163.422 136.274 164.007 138.202 165.178 139.545C166.348 140.888 167.778 141.559 169.468 141.559C171.288 141.558 172.87 140.799 174.212 139.282C175.599 137.722 176.291 135.62 176.291 132.977C176.29 131.894 176.16 130.745 175.9 129.532C175.293 129.879 174.513 130.052 173.56 130.053C172.997 130.053 172.628 129.923 172.455 129.663C171.718 129.403 171.349 128.082 171.349 125.698C171.348 123.488 171.716 122.166 172.453 121.733C175.702 120.259 179.515 119.521 183.892 119.52C188.659 119.518 191.475 120.124 192.342 121.337C192.819 122.031 193.058 123.006 193.058 124.262C193.059 126.732 192.431 128.336 191.175 129.073C190.655 129.463 190.07 129.658 189.42 129.658C189.203 129.658 188.878 129.615 188.445 129.528C188.445 130.785 188.489 132.822 188.576 135.638C188.664 138.412 188.708 140.513 188.708 141.943C189.922 141.856 190.637 141.813 190.853 141.813C191.287 141.813 191.633 141.834 191.893 141.878C192.067 142.051 192.153 142.506 192.154 143.242C192.154 144.412 191.981 145.886 191.635 147.663C191.289 149.396 190.964 150.458 190.661 150.848C190.184 151.108 189.058 151.412 187.281 151.759C185.504 152.063 183.749 152.215 182.016 152.215C179.936 152.216 178.376 151.956 177.336 151.437C176.946 151.177 176.751 150.592 176.75 149.682C176.75 149.508 176.858 148.772 177.075 147.472C172.439 150.94 168.15 152.674 164.206 152.675C160.783 152.676 158.031 151.464 155.95 149.038C153.87 146.611 152.828 142.907 152.827 137.923C152.827 137.1 152.978 134.717 153.28 130.773C153.28 130.86 153.085 130.903 152.695 130.903C152.088 130.904 151.07 130.796 149.64 130.579C149.25 130.146 149.054 128.738 149.054 126.354ZM196.106 146.621C196.106 144.498 196.539 143.263 197.405 142.916C197.795 142.699 198.553 142.504 199.68 142.33C200.46 142.2 200.958 142.135 201.175 142.135C200.697 137.108 200.458 133.902 200.457 132.515C200.457 129.482 200.673 127.488 201.106 126.535C199.849 126.535 198.874 126.449 198.181 126.276C197.834 125.366 197.66 124.564 197.66 123.871C197.66 122.528 198.244 120.989 199.414 119.255C201.017 118.952 204.028 118.799 208.448 118.798C209.965 118.798 211.439 118.884 212.869 119.057C214.299 119.23 215.404 119.446 216.184 119.706C217.007 119.922 217.419 120.139 217.419 120.355C217.766 120.875 217.939 121.677 217.94 122.76C217.94 125.057 217.594 126.639 216.901 127.506C216.771 127.679 216.186 127.766 215.146 127.766C214.106 127.766 213.369 127.658 212.936 127.442C212.46 130.475 212.223 134.397 212.224 139.207C212.225 141.244 212.29 142.305 212.42 142.392C212.68 142.348 213.048 142.327 213.525 142.327C214.652 142.326 215.692 142.564 216.645 143.041C216.819 143.344 216.906 143.864 216.906 144.601C216.906 145.684 216.733 146.962 216.387 148.436C216.041 149.866 215.694 150.863 215.348 151.426C214.654 151.816 212.336 152.012 208.393 152.013C202.066 152.015 198.404 151.431 197.407 150.261C196.541 149.655 196.107 148.441 196.106 146.621ZM202.595 106.125C202.595 104.911 203.244 104.304 204.544 104.304C205.628 104.304 206.798 104.628 208.055 105.278C208.964 104.368 210.178 103.912 211.694 103.912C212.648 103.912 213.493 104.237 214.23 104.886C214.966 105.536 215.335 106.424 215.335 107.551C215.335 108.114 215.206 108.656 214.946 109.176C214.729 109.696 214.491 110.13 214.231 110.476C213.971 110.823 213.538 111.235 212.932 111.712C212.325 112.145 211.848 112.47 211.502 112.687C211.198 112.861 210.635 113.186 209.812 113.663C208.989 114.096 208.469 114.378 208.252 114.508C206.562 113.252 205.197 111.844 204.156 110.284C203.116 108.681 202.595 107.295 202.595 106.125ZM219.495 120.94C219.494 120.03 219.581 119.488 219.754 119.315C220.967 119.141 221.877 119.054 222.484 119.054C222.744 119.054 223.069 119.076 223.459 119.119C223.849 119.119 224.174 119.119 224.434 119.118L224.889 119.118L224.886 106.898C228.092 106.637 230.042 106.507 230.735 106.507C232.295 106.506 234.202 106.636 236.456 106.895L237.109 119.245C240.489 119.374 242.569 119.677 243.349 120.153C243.913 120.89 244.195 122.905 244.196 126.198C244.196 127.108 244.11 127.65 243.936 127.823C242.723 127.997 241.77 128.084 241.077 128.084L240.557 128.084C240.253 128.084 239.712 128.084 238.932 128.084C238.195 128.041 237.285 128.02 236.202 128.02C236.202 128.237 236.18 129.819 236.138 132.765C236.139 135.669 236.139 137.25 236.139 137.51C236.14 139.417 236.508 140.76 237.245 141.54C237.982 142.276 239.109 142.644 240.626 142.644C241.059 142.644 241.319 142.6 241.406 142.514C241.536 142.384 241.622 142.102 241.665 141.669C241.665 141.365 242.164 141.105 243.16 140.888L247.45 139.847C247.884 141.104 248.101 142.577 248.101 144.267C248.102 147.56 247.821 149.575 247.258 150.312C247.084 150.399 246.738 150.594 246.218 150.897C245.698 151.201 245.351 151.396 245.178 151.483C245.005 151.526 244.68 151.656 244.203 151.873C243.77 152.046 243.402 152.155 243.098 152.198C242.795 152.242 242.362 152.307 241.798 152.394C241.235 152.524 240.628 152.589 239.978 152.589C239.328 152.633 238.57 152.655 237.703 152.655C235.797 152.655 234.237 152.547 233.023 152.331C231.853 152.158 230.705 151.768 229.578 151.162C228.495 150.556 227.649 149.711 227.042 148.628C226.435 147.545 225.893 146.071 225.416 144.208C224.939 142.302 224.613 140.048 224.439 137.448C224.265 134.805 224.178 131.599 224.176 127.829C222.27 127.612 220.991 127.331 220.341 126.985C219.778 126.248 219.495 124.233 219.495 120.94Z" fill="#1E1E1E"/>
</svg>
